Coordinates
version=1
nRows=16
nColumns=40
inDegrees=yes

Units are S.I. units (second, meters, Newtons, ...)
Angles are in degrees.

endheader
time	pelvis_tilt	pelvis_list	pelvis_rotation	pelvis_tx	pelvis_ty	pelvis_tz	hip_flexion_r	hip_adduction_r	hip_rotation_r	knee_angle_r	knee_angle_r_beta	ankle_angle_r	subtalar_angle_r	mtp_angle_r	hip_flexion_l	hip_adduction_l	hip_rotation_l	knee_angle_l	knee_angle_l_beta	ankle_angle_l	subtalar_angle_l	mtp_angle_l	lumbar_extension	lumbar_bending	lumbar_rotation	arm_flex_r	arm_add_r	arm_rot_r	elbow_flex_r	pro_sup_r	wrist_flex_r	wrist_dev_r	arm_flex_l	arm_add_l	arm_rot_l	elbow_flex_l	pro_sup_l	wrist_flex_l	wrist_dev_l
      4.53014286	     -7.24648282	     -4.10736370	      3.44546832	      0.76978816	      0.92690682	      0.52615360	     14.14938934	      3.19920116	    -13.94469893	     16.89038588	     16.89038588	     11.77071311	     -3.32314972	     -2.81273842	     35.14346724	     -8.43654902	      2.79015356	     38.99555566	     38.99555566	     11.71626195	    -18.39294955	     15.62445374	    -11.16279651	      4.26686904	      0.95170086	     19.61636865	    -18.78053118	     -3.14151844	     72.15282246	     44.91252400	      0.00000000	      0.00000000	      6.15847766	     -7.70194148	    -13.49573174	     31.92772682	     47.14771620	      0.00000000	      0.00000000
      4.54278571	     -7.33434106	     -3.95239846	      3.70803127	      0.76872320	      0.92667922	      0.52587142	     13.88685273	      3.00812274	    -14.02458100	     16.95756417	     16.95756417	     12.11683649	     -3.46870875	     -2.84841615	     35.20312980	     -7.82593081	      3.08173494	     35.63300993	     35.63300993	     11.65376528	    -17.78736131	     15.34196235	    -11.17898109	      4.04833140	      1.05502090	     21.17869061	    -18.90428683	     -3.29359624	     73.89471708	     44.87246387	      0.00000000	      0.00000000	      5.44046127	     -7.72220175	    -13.58124783	     31.14878597	     47.13882093	      0.00000000	      0.00000000
      4.55542857	     -7.40197984	     -3.97148030	      4.00551331	      0.76772425	      0.92622461	      0.52541674	     13.64727194	      2.94732785	    -14.30701368	     17.13869642	     17.13869642	     12.66021435	     -3.26579090	     -2.53108947	     35.19373361	     -7.41574737	      3.38669989	     32.25522110	     32.25522110	     10.52078555	    -17.06665530	     11.95059039	    -11.29009669	      4.08810236	      1.52151400	     21.94763618	    -19.70608551	     -3.32073709	     77.64834644	     44.79227234	      0.00000000	      0.00000000	      5.29254974	     -7.49446108	    -13.93870973	     29.70849598	     47.13417316	      0.00000000	      0.00000000
      4.56807143	     -7.57424116	     -3.92955374	      4.23473564	      0.76679489	      0.92574523	      0.52497728	     13.43638056	      2.87458954	    -14.41810740	     17.13459256	     17.13459256	     12.94577830	     -3.36906996	     -2.57815167	     35.37970177	     -6.98924943	      3.55650268	     29.34185095	     29.34185095	     10.66555296	    -15.78558859	     11.96534832	    -11.16069442	      4.00711574	      1.47508528	     23.70839998	    -19.45913906	     -3.57074952	     79.09084808	     44.76632145	      0.00000000	      0.00000000	      4.37332487	     -7.54304743	    -13.95769629	     29.13632342	     47.11474054	      0.00000000	      0.00000000
      4.58071429	     -7.77279062	     -4.10280842	      4.49617784	      0.76589952	      0.92504207	      0.52438279	     13.30001732	      3.00044762	    -14.62625852	     17.18796620	     17.18796620	     13.21499144	     -3.45142358	     -2.66244305	     35.73673863	     -6.73968027	      3.87861288	     26.87042343	     26.87042343	     10.88656929	    -14.51401781	     12.00342146	    -10.97553357	      4.23288264	      1.70171548	     25.37813518	    -19.64752209	     -3.80419414	     80.18249771	     44.74801007	      0.00000000	      0.00000000	      3.63404612	     -7.41771602	    -13.96056851	     28.78299328	     47.09953411	      0.00000000	      0.00000000
      4.59335714	     -7.74007717	     -4.02782262	      4.71069437	      0.76543774	      0.92487636	      0.52374338	     12.77256428	      2.89166235	    -14.84293076	     17.09423881	     17.09423881	     13.60536518	     -3.18850721	     -2.57169241	     35.59314180	     -6.42708954	      3.59046376	     24.34279710	     24.34279710	     10.85109153	    -12.84485170	     11.26924910	    -11.13538593	      4.15168806	      1.24218214	     26.93514570	    -18.99808833	     -3.57890484	     82.90111245	     44.67095600	      0.00000000	      0.00000000	      2.57719565	     -7.54085965	    -13.96947976	     28.33596155	     47.06910282	      0.00000000	      0.00000000
      4.60600000	     -7.89336888	     -4.12539553	      4.86789550	      0.76489355	      0.92434405	      0.52303658	     12.49587982	      2.96592329	    -14.96320522	     17.03317688	     17.03317688	     13.87372356	     -3.16833291	     -2.58792140	     35.74659529	     -6.22719400	      3.50440844	     22.25547885	     22.25547885	     10.88447364	    -11.68105275	     11.24172096	    -10.96726055	      4.23062187	      1.51818891	     28.35427582	    -19.05326568	     -3.67067121	     84.01478833	     44.64815116	      0.00000000	      0.00000000	      1.89051577	     -7.40243722	    -13.96138867	     28.12206873	     47.05095864	      0.00000000	      0.00000000
      4.61864286	     -7.86720254	     -4.15665900	      5.01120742	      0.76476569	      0.92414237	      0.52220867	     11.89324297	      2.99162395	    -15.12439478	     16.80005461	     16.80005461	     14.21106949	     -2.88244138	     -2.47070677	     35.62403250	     -6.06459782	      3.02613594	     20.41564493	     20.41564493	     10.76939743	    -10.40911415	     10.77190166	    -11.02767408	      4.30136743	      1.43535002	     29.66377601	    -18.64375509	     -3.48270829	     85.99347788	     44.59522991	      0.00000000	      0.00000000	      0.96158859	     -7.38629522	    -13.92665269	     28.03202625	     47.01668164	      0.00000000	      0.00000000
      4.63128571	     -7.90389153	     -4.31056600	      5.10409944	      0.76473156	      0.92373549	      0.52134307	     11.36099623	      3.14050926	    -15.31770979	     16.56483000	     16.56483000	     14.56571483	     -2.48120602	     -2.22688339	     35.62056257	     -6.03690511	      2.54967424	     18.98798713	     18.98798713	     10.38465430	     -9.50274038	      9.86378987	    -10.99117274	      4.49346815	      1.60343615	     30.79655913	    -18.50823781	     -3.25075214	     87.78134906	     44.56306791	      0.00000000	      0.00000000	     -0.02023029	     -7.28350666	    -13.76110283	     28.44596757	     46.94378607	      0.00000000	      0.00000000
      4.64392857	     -7.92909645	     -4.40130368	      5.13759401	      0.76489435	      0.92341727	      0.52044807	     10.78219632	      3.25574510	    -15.33930640	     16.28172740	     16.28172740	     14.80373581	     -2.31616074	     -2.19309651	     35.50439229	     -5.96611666	      2.07692532	     17.82532686	     17.82532686	     10.14857295	     -8.96970842	      9.88946754	    -10.88608556	      4.55651730	      1.79479570	     31.95280313	    -18.16304122	     -3.24080678	     88.68215195	     44.54755000	      0.00000000	      0.00000000	     -0.72059555	     -7.16546379	    -13.66628604	     28.34235158	     46.90717446	      0.00000000	      0.00000000
      4.65657143	     -8.00599650	     -4.56476066	      5.13165849	      0.76521735	      0.92289583	      0.51947889	     10.23925850	      3.44016545	    -15.37817433	     15.96724706	     15.96724706	     15.03299089	     -2.07409834	     -2.19108229	     35.48788377	     -5.98772118	      1.63083064	     17.11620172	     17.11620172	      9.88327124	     -8.66902206	      9.94114529	    -10.69542143	      4.73794296	      2.07795978	     33.06853057	    -17.84158054	     -3.20630167	     89.48193420	     44.53073342	      0.00000000	      0.00000000	     -1.37225268	     -6.98784580	    -13.59735567	     28.24729204	     46.87940842	      0.00000000	      0.00000000
      4.66921429	     -8.08652362	     -4.72466832	      5.01538955	      0.76576513	      0.92229330	      0.51851170	      9.70393994	      3.62068862	    -15.28661194	     15.69581500	     15.69581500	     15.28341216	     -1.79621244	     -2.22805736	     35.45163010	     -6.07900219	      1.13166180	     16.77118947	     16.77118947	      9.53218147	     -8.60682405	     10.03589301	    -10.45783981	      4.89369463	      2.45734295	     33.91832312	    -17.55356594	     -3.15756929	     90.05995882	     44.51696214	      0.00000000	      0.00000000	     -2.02845060	     -6.81078527	    -13.55764351	     28.11663805	     46.85841383	      0.00000000	      0.00000000
      4.68185714	     -7.93631984	     -4.93749347	      4.99723013	      0.76679032	      0.92206655	      0.51744522	      8.62371369	      3.91820656	    -15.47531707	     14.91077682	     14.91077682	     15.46403426	     -1.05962595	     -2.14661164	     35.00896077	     -6.24879750	      0.63243851	     16.45955262	     16.45955262	      8.98341793	     -8.29713890	      9.71386821	    -10.49730882	      5.11845038	      2.26056719	     34.78570710	    -16.67850458	     -2.78926897	     91.20447624	     44.48282726	      0.00000000	      0.00000000	     -2.91534950	     -6.73217469	    -13.38048795	     28.29877326	     46.80359975	      0.00000000	      0.00000000
      4.69450000	     -8.03405697	     -5.11814911	      4.80366878	      0.76775606	      0.92125330	      0.51642702	      8.09079649	      4.10820744	    -15.35780171	     14.66810734	     14.66810734	     15.74023984	     -0.72582588	     -2.21254267	     34.86331884	     -6.42962600	      0.20061846	     16.52625370	     16.52625370	      8.39327664	     -8.38487664	      9.74376240	    -10.17472481	      5.25292102	      2.71163835	     35.39227527	    -16.36599210	     -2.66243563	     91.55336838	     44.47337355	      0.00000000	      0.00000000	     -3.46049595	     -6.52144285	    -13.31098001	     28.28501394	     46.77909743	      0.00000000	      0.00000000
      4.70714286	     -7.89395902	     -5.41606857	      4.69029626	      0.76919752	      0.92071247	      0.51530754	      6.96560667	      4.48937276	    -15.56687403	     13.82818898	     13.82818898	     15.91760457	      0.18004180	     -2.16362218	     34.42358436	     -6.74054191	     -0.08870727	     16.71580132	     16.71580132	      7.54979536	     -8.34804352	      9.14797698	    -10.11779678	      5.55393295	      2.60635096	     36.02168438	    -15.57867933	     -2.22731323	     92.23945989	     44.45122790	      0.00000000	      0.00000000	     -4.30195962	     -6.42948846	    -13.04554580	     28.57338603	     46.71100568	      0.00000000	      0.00000000
      4.71978571	     -7.97956752	     -5.57107405	      4.37655763	      0.77060376	      0.91974429	      0.51426154	      6.39305499	      4.63592238	    -15.35285331	     13.61365389	     13.61365389	     16.21546164	      0.60185503	     -2.25158831	     34.13715760	     -6.97537692	     -0.44247944	     16.99706347	     16.99706347	      6.74914113	     -8.48177591	      9.11348042	     -9.75853272	      5.64413845	      3.04372783	     36.32235370	    -15.17594802	     -2.00827957	     92.42075366	     44.44314488	      0.00000000	      0.00000000	     -4.79930209	     -6.22160257	    -12.93593481	     28.59109543	     46.68107704	      0.00000000	      0.00000000
